#!OML:ASF H:\Terrain\Patient Classification 1\Walking\liu\liu.ASF
:FULLY-SPECIFIED
:DEGREES
469
root 10.879000 17.396500 29.489799 3.963020 4.259900 2.837250
lowerback -5.534342 -4.393059 -4.386338
upperback 0.367595 -5.664813 2.089373
thorax 4.060639 -2.925626 4.132480
lowerneck -24.934690 -3.125364 -11.145860
upperneck 26.815250 -3.626491 11.088000
head 13.355210 -1.216996 5.492641
rclavicle -0.000000 -0.000000
rhumerus -49.912281 11.587730 -95.177940
rradius 42.675819
rwrist -21.849302
rhand -27.666540 -44.596199
rfingers 7.837522
rthumb 1.501852 -77.569145
lclavicle -0.000000 -0.000000
lhumerus -13.329250 -21.640850 93.383072
lradius 29.981710
lwrist 5.607679
lhand -16.195520 -27.158670
lfingers 7.837522
lthumb 12.574870 5.476515
rfemur -36.190331 1.139160 17.647852
rtibia 54.690571
rfoot -21.661200 -11.294140
rtoes -17.117430
lfemur -8.880905 2.765015 -31.301600
ltibia 25.102221
lfoot -19.242409 4.139575
ltoes 3.985080
470
root 10.887000 17.375700 29.619801 4.002940 4.359340 3.099480
lowerback -4.850714 -4.445771 -4.442130
upperback -0.321807 -5.755695 1.982024
thorax 2.965677 -2.937671 4.121370
lowerneck -24.303070 -3.122779 -11.143991
upperneck 27.354139 -3.662329 10.877316
head 13.440460 -1.279542 5.420481
rclavicle -0.000000 -0.000000
rhumerus -51.373081 11.438130 -95.243286
rradius 42.811012
rwrist -21.747330
rhand -28.091581 -43.454731
rfingers 7.837522
rthumb 1.091377 -76.429977
lclavicle -0.000000 -0.000000
lhumerus -14.057120 -21.765369 93.574913
lradius 30.489801
lwrist 5.774604
lhand -16.405510 -27.332142
lfingers 7.837522
lthumb 12.372360 5.314177
rfemur -36.628460 1.027353 17.264721
rtibia 53.097000
rfoot -21.648991 -10.975294
rtoes -16.789299
lfemur -7.855364 2.769536 -31.591562
ltibia 24.206600
lfoot -19.493101 3.951112
ltoes 3.923326
471
root 10.890800 17.374001 29.747999 3.997930 4.515110 2.646830
lowerback -5.959767 -4.356539 -3.703656
upperback 0.517669 -5.639942 1.965073
thorax 4.380068 -2.904429 3.591071
lowerneck -25.033800 -3.380894 -11.208340
upperneck 27.042950 -3.965456 11.053020
head 13.508110 -1.378773 5.443163
rclavicle -0.000000 -0.000000
rhumerus -50.340183 10.489447 -94.806145
rradius 42.831142
rwrist -21.288851
rhand -29.103361 -39.828251
rfingers 7.837522
rthumb 0.114181 -72.805923
lclavicle -0.000000 -0.000000
lhumerus -12.118259 -22.741621 92.906555
lradius 30.848730
lwrist 6.475095
lhand -16.755310 -27.247992
lfingers 7.837522
lthumb 12.034990 5.416488
rfemur -37.109493 1.104928 17.791071
rtibia 51.493202
rfoot -21.373110 -11.221320
rtoes -19.447559
lfemur -6.820561 2.821137 -30.979191
ltibia 23.188330
lfoot -19.528959 3.745709
ltoes 3.156791
472
root 10.893000 17.385799 29.868299 4.040920 4.571840 2.765800
lowerback -6.874725 -4.433451 -3.858668
upperback 1.310716 -5.702576 1.908654
thorax 5.739657 -2.969571 3.516667
lowerneck -25.678511 -3.457663 -11.452101
upperneck 26.514730 -4.046680 11.613029
head 13.457511 -1.346059 5.676330
rclavicle 0.000000 -0.000000
rhumerus -49.237652 9.950600 -94.390999
rradius 42.958302
rwrist -20.863811
rhand -30.875900 -32.760750
rfingers 7.837522
rthumb -1.597816 -65.733032
lclavicle 0.000000 -0.000000
lhumerus -10.174912 -23.064032 92.173622
lradius 31.068621
lwrist 7.122027
lhand -17.025581 -27.288801
lfingers 7.837522
lthumb 11.774180 5.389252
rfemur -37.779942 1.558821 17.456451
rtibia 49.843418
rfoot -21.284889 -11.371031
rtoes -20.532709
lfemur -5.872328 2.953500 -31.050032
ltibia 22.300852
lfoot -19.475609 3.679379
ltoes 3.852596
